<svg xmlns="http://www.w3.org/2000/svg" style="left: 0px; top: 0px; width: 100%; height: 100%; overflow: hidden; display: block; position: absolute; min-height: 536px; min-width: 1037px; background-image: none; background-color: rgb(255, 255, 255);"><defs><filter id="lightboxDropShadow"><feGaussianBlur result="blur" in="SourceAlpha" stdDeviation="1.7" /><feOffset result="offsetBlur" in="blur" dx="3" dy="3" /><feFlood flood-color="#3d4574" flood-opacity="0.4" result="offsetColor" /><feComposite result="offsetBlur" in="offsetColor" in2="offsetBlur" operator="in" /><feBlend in="SourceGraphic" in2="offsetBlur" /></filter></defs><g><g /><g><g style="visibility: visible;" transform="translate(0.5 0.5)"><rect fill="#ffcccc" pointer-events="all" stroke="#0000ff" x="410.32" y="83.78" width="625.58" height="229.32" /></g><g style="visibility: visible;"><rect visibility="hidden" fill="none" pointer-events="stroke" stroke="white" stroke-width="9.83" x="400.54" y="396.26" width="555.25" height="138.81" /><rect fill="none" pointer-events="all" stroke="#000000" stroke-width="1.83" x="400.54" y="396.26" width="555.25" height="138.81" /></g><g style="visibility: visible;"><path visibility="hidden" fill="none" pointer-events="stroke" stroke="white" stroke-miterlimit="10" stroke-width="9.83" d="M 587 75 L 587 94 L 529 94 L 529 105.82" /><path fill="none" stroke="#0000ff" stroke-miterlimit="10" stroke-width="1.83" d="M 587 75 L 587 94 L 529 94 L 529 105.82" /><path fill="#0000ff" pointer-events="all" stroke="#0000ff" stroke-miterlimit="10" stroke-width="1.83" d="M 529 109.95 L 526.25 104.45 L 529 105.82 L 531.75 104.45 Z" /></g><g style="visibility: visible;"><path visibility="hidden" fill="none" pointer-events="stroke" stroke="white" stroke-miterlimit="10" stroke-width="9.83" d="M 587 75 L 587 93 L 660 93 L 660 104.82" /><path fill="none" stroke="#0000ff" stroke-miterlimit="10" stroke-width="1.83" d="M 587 75 L 587 93 L 660 93 L 660 104.82" /><path fill="#0000ff" pointer-events="all" stroke="#0000ff" stroke-miterlimit="10" stroke-width="1.83" d="M 660 108.95 L 657.25 103.45 L 660 104.82 L 662.75 103.45 Z" /></g><g style="visibility: visible;" transform="translate(0.5 0.5)"><rect fill="#fff2cc" pointer-events="all" stroke="#d6b656" x="562.59" y="26.29" width="48.92" height="48.92" /></g><g style="visibility: visible;" transform="translate(0.5 0.5)"><rect fill="#dae8fc" pointer-events="all" stroke="#6c8ebf" x="504.5" y="111.91" width="48.92" height="48.92" /></g><g style="visibility: visible;"><path visibility="hidden" fill="none" pointer-events="stroke" stroke="white" stroke-miterlimit="10" stroke-width="9.83" d="M 648 160 L 648 176 L 516 176 L 516 161 L 517 161" /><path fill="none" stroke="#ff0000" stroke-miterlimit="10" stroke-width="1.83" d="M 648 160 L 648 176 L 516 176 L 516 161 L 517 161" /></g><g style="visibility: visible;"><path visibility="hidden" fill="none" pointer-events="stroke" stroke="white" stroke-miterlimit="10" stroke-width="9.83" d="M 660 160 L 660 177 L 774 177 L 774 160" /><path fill="none" stroke="#000000" stroke-miterlimit="10" stroke-width="1.83" d="M 660 160 L 660 177 L 774 177 L 774 160" /></g><g style="visibility: visible;" transform="translate(0.5 0.5)"><rect fill="#fff2cc" pointer-events="all" stroke="#d6b656" x="635.97" y="111.29" width="48.92" height="48.92" /></g><g style="visibility: visible;" transform="translate(0.5 0.5)"><rect fill="#f5f5f5" pointer-events="all" stroke="#666666" x="413.99" y="174.28" width="98.45" height="9.78" /></g><g style="visibility: visible;" transform="translate(0.5 0.5)"><rect fill="#dae8fc" pointer-events="all" stroke="#6c8ebf" x="517.34" y="149.21" width="36.69" height="12.23" /></g><g style="visibility: visible;"><path visibility="hidden" fill="none" pointer-events="stroke" stroke="white" stroke-miterlimit="10" stroke-width="9.83" d="M 464.14 344.89 L 484 345 L 498.32 345" /><path fill="none" stroke="#000000" stroke-miterlimit="10" stroke-width="1.83" d="M 464.14 344.89 L 484 345 L 498.32 345" /><path fill="#000000" pointer-events="all" stroke="#000000" stroke-miterlimit="10" stroke-width="1.83" d="M 502.45 345 L 496.94 347.75 L 498.32 345 L 496.94 342.25 Z" /></g><g style="visibility: visible;" transform="translate(0.5 0.5)"><rect fill="#dae8fc" pointer-events="all" stroke="#6c8ebf" x="420.72" y="320.43" width="48.92" height="48.92" /></g><g style="visibility: visible;"><path visibility="hidden" fill="none" pointer-events="stroke" stroke="white" stroke-miterlimit="10" stroke-width="9.83" d="M 553.42 344.89 L 604.72 344.89" /><path fill="none" stroke="#000000" stroke-miterlimit="10" stroke-width="1.83" d="M 553.42 344.89 L 604.72 344.89" /><path fill="#000000" pointer-events="all" stroke="#000000" stroke-miterlimit="10" stroke-width="1.83" d="M 608.85 344.89 L 603.34 347.64 L 604.72 344.89 L 603.34 342.14 Z" /></g><g style="visibility: visible;" transform="translate(0.5 0.5)"><rect fill="#dae8fc" pointer-events="all" stroke="#6c8ebf" x="504.5" y="320.43" width="48.92" height="48.92" /></g><g style="visibility: visible;"><path visibility="hidden" fill="none" pointer-events="stroke" stroke="white" stroke-miterlimit="10" stroke-width="9.83" d="M 659.82 344.89 L 702.56 344.89" /><path fill="none" stroke="#000000" stroke-miterlimit="10" stroke-width="1.83" d="M 659.82 344.89 L 702.56 344.89" /><path fill="#000000" pointer-events="all" stroke="#000000" stroke-miterlimit="10" stroke-width="1.83" d="M 706.69 344.89 L 701.19 347.64 L 702.56 344.89 L 701.19 342.14 Z" /></g><g style="visibility: visible;"><path visibility="hidden" fill="none" pointer-events="stroke" stroke="white" stroke-miterlimit="10" stroke-width="9.83" d="M 623 312.45 L 623 214 L 716.82 214" /><path fill="none" stroke="#00cc66" stroke-miterlimit="10" stroke-width="1.83" d="M 623 312.45 L 623 214 L 716.82 214" /><path fill="#00cc66" pointer-events="all" stroke="#00cc66" stroke-miterlimit="10" stroke-width="1.83" d="M 623 317.95 L 620.25 312.45 L 625.75 312.45 Z" /><path fill="#00cc66" pointer-events="all" stroke="#00cc66" stroke-miterlimit="10" stroke-width="1.83" d="M 720.95 214 L 715.45 216.75 L 716.82 214 L 715.45 211.25 Z" /></g><g style="visibility: visible;" transform="translate(0.5 0.5)"><rect fill="#dae8fc" pointer-events="all" stroke="#6c8ebf" x="610.9" y="320.43" width="48.92" height="48.92" /></g><g style="visibility: visible;"><path visibility="hidden" fill="none" pointer-events="stroke" stroke="white" stroke-miterlimit="10" stroke-width="9.83" d="M 757.66 345 L 782 345 L 800.4 344.92" /><path fill="none" stroke="#000000" stroke-miterlimit="10" stroke-width="1.83" d="M 757.66 345 L 782 345 L 800.4 344.92" /><path fill="#000000" pointer-events="all" stroke="#000000" stroke-miterlimit="10" stroke-width="1.83" d="M 804.53 344.9 L 799.04 347.68 L 800.4 344.92 L 799.02 342.17 Z" /></g><g style="visibility: visible;" transform="translate(0.5 0.5)"><rect fill="#dae8fc" pointer-events="all" stroke="#6c8ebf" x="708.74" y="320.43" width="48.92" height="48.92" /></g><g style="visibility: visible;" transform="translate(0.5 0.5)"><rect fill="#dae8fc" pointer-events="all" stroke="#6c8ebf" x="806.58" y="320.43" width="48.92" height="48.92" /></g><g style="visibility: visible;" transform="translate(0.5 0.5)"><rect visibility="hidden" fill="none" pointer-events="stroke" stroke="white" stroke-width="9" x="871.71" y="336.33" width="94.78" height="8.56" /><rect fill="none" pointer-events="all" stroke="none" x="871.71" y="336.33" width="94.78" height="8.56" /></g><g style="visibility: visible;" transform="translate(0.5 0.5)"><rect fill="#f5f5f5" pointer-events="all" stroke="#666666" x="468.42" y="30.58" width="61.15" height="9.78" /></g><g style="visibility: visible;" transform="translate(0.5 0.5)"><rect fill="#f5f5f5" pointer-events="all" stroke="#666666" x="413.99" y="96.62" width="109.46" height="12.23" /></g><g style="visibility: visible;" transform="translate(0.5 0.5)"><rect visibility="hidden" fill="none" pointer-events="stroke" stroke="white" stroke-width="9" x="427.45" y="267.54" width="183.45" height="22.63" /><rect fill="none" pointer-events="all" stroke="none" x="427.45" y="267.54" width="183.45" height="22.63" /></g><g style="visibility: visible;" transform="translate(0.5 0.5)" /><g style="visibility: visible;" transform="translate(0.5 0.5)" /><g style="visibility: visible;" transform="translate(0.5 0.5)"><rect visibility="hidden" fill="none" pointer-events="stroke" stroke="white" stroke-width="9" x="838.38" y="103.35" width="124.14" height="45.86" /><rect fill="none" pointer-events="all" stroke="#000000" x="838.38" y="103.35" width="124.14" height="45.86" /></g><g style="visibility: visible;" transform="translate(0.5 0.5)"><rect visibility="hidden" fill="none" pointer-events="stroke" stroke="white" stroke-width="9" x="862.23" y="111.26" width="76.44" height="13.65" /><rect fill="none" pointer-events="all" stroke="#000000" x="862.23" y="111.26" width="76.44" height="13.65" /></g><g style="visibility: visible;" transform="translate(0.5 0.5)"><rect visibility="hidden" fill="none" pointer-events="stroke" stroke="white" stroke-width="9" x="862.23" y="127.64" width="76.44" height="13.65" /><rect fill="none" pointer-events="all" stroke="#000000" x="862.23" y="127.64" width="76.44" height="13.65" /></g><g style="visibility: visible;" transform="translate(0.5 0.5)"><rect fill="#e1d5e7" pointer-events="all" stroke="#9673a6" x="737.48" y="122.91" width="73.38" height="36.69" rx="5.5" ry="5.5" /></g><g style="visibility: visible;"><path visibility="hidden" fill="none" pointer-events="stroke" stroke="white" stroke-miterlimit="10" stroke-width="9.83" d="M 738.71 177.95 L 739 190 L 738 190 L 738.12 192.57" /><path fill="none" stroke="#000000" stroke-miterlimit="10" stroke-width="1.83" d="M 738.71 177.95 L 739 190 L 738 190 L 738.12 192.57" /><path fill="#000000" pointer-events="all" stroke="#000000" stroke-miterlimit="10" stroke-width="1.83" d="M 738.31 196.69 L 735.31 191.32 L 738.12 192.57 L 740.8 191.07 Z" /></g><g style="visibility: visible;" transform="translate(0.5 0.5)"><rect fill="#f5f5f5" pointer-events="all" stroke="#666666" x="780.9" y="42.81" width="69.1" height="13.45" /></g><g style="visibility: visible;"><path visibility="hidden" fill="none" pointer-events="stroke" stroke="white" stroke-miterlimit="10" stroke-width="9.83" d="M 901 70.18 L 901 83 L 900 83 L 900 96.82" /><path fill="none" stroke="#00cc66" stroke-miterlimit="10" stroke-width="1.83" d="M 901 70.18 L 901 83 L 900 83 L 900 96.82" /><path fill="#00cc66" pointer-events="all" stroke="#00cc66" stroke-miterlimit="10" stroke-width="1.83" d="M 901 66.05 L 903.75 71.55 L 901 70.18 L 898.25 71.55 Z" /><path fill="#00cc66" pointer-events="all" stroke="#00cc66" stroke-miterlimit="10" stroke-width="1.83" d="M 900 100.95 L 897.25 95.45 L 900 96.82 L 902.75 95.45 Z" /></g><g style="visibility: visible;" transform="translate(0.5 0.5)"><rect opacity="0.25" fill="#000000" stroke="#000000" transform="translate(1.22 1.83)" x="864.06" y="26.91" width="73.38" height="36.69" /><rect fill="#cdeb8b" pointer-events="all" stroke="#36393d" x="864.06" y="26.91" width="73.38" height="36.69" /></g><g style="visibility: visible;" transform="translate(0.5 0.5)"><rect visibility="hidden" fill="none" pointer-events="stroke" stroke="white" stroke-width="9" x="411.24" y="417.97" width="24.46" height="12.23" /><rect fill="none" pointer-events="all" stroke="none" x="411.24" y="417.97" width="24.46" height="12.23" /></g><g style="visibility: visible;" transform="translate(0.5 0.5)"><rect fill="#ffffff" pointer-events="all" stroke="#000000" x="621.91" y="416.13" width="300.86" height="103.96" /></g><g style="visibility: visible;" transform="translate(0.5 0.5)" /><g style="visibility: visible;" transform="translate(0.5 0.5)"><rect fill="#dae8fc" pointer-events="all" stroke="#6c8ebf" x="442.12" y="441.82" width="152.27" height="20.79" /></g><g style="visibility: visible;" transform="translate(0.5 0.5)"><rect fill="#fff2cc" pointer-events="all" stroke="#d6b656" x="442.12" y="468.42" width="152.88" height="16.51" /></g><g style="visibility: visible;" transform="translate(0.5 0.5)"><rect fill="#fad9d5" pointer-events="all" stroke="#ae4132" x="442.12" y="498.08" width="173.06" height="16.51" /></g><g style="visibility: visible;" transform="translate(0.5 0.5)"><rect fill="#ffffff" pointer-events="all" stroke="#000000" x="442.73" y="413.69" width="160.83" height="19.57" /></g><g style="visibility: visible;"><path visibility="hidden" fill="none" pointer-events="stroke" stroke="white" stroke-miterlimit="10" stroke-width="9.83" d="M 738 235.18 L 738 243 L 739 243 L 739 251.82" /><path fill="none" stroke="#00cc66" stroke-miterlimit="10" stroke-width="1.83" d="M 738 235.18 L 738 243 L 739 243 L 739 251.82" /><path fill="#00cc66" pointer-events="all" stroke="#00cc66" stroke-miterlimit="10" stroke-width="1.83" d="M 738 231.05 L 740.75 236.55 L 738 235.18 L 735.25 236.55 Z" /><path fill="#00cc66" pointer-events="all" stroke="#00cc66" stroke-miterlimit="10" stroke-width="1.83" d="M 739 255.95 L 736.25 250.45 L 739 251.82 L 741.75 250.45 Z" /></g><g style="visibility: visible;" transform="translate(0.5 0.5)"><ellipse opacity="0.25" fill="#000000" stroke="#000000" transform="translate(1.22 1.83)" cx="738" cy="214" rx="14.982" ry="14.982" /><ellipse fill="#a20025" pointer-events="all" stroke="#a20025" cx="738" cy="214" rx="14.982" ry="14.982" /></g><g style="visibility: visible;"><path visibility="hidden" fill="none" pointer-events="stroke" stroke="white" stroke-miterlimit="10" stroke-width="9.83" d="M 529 261 L 529 312.45" /><path fill="none" stroke="#ff0000" stroke-miterlimit="10" stroke-width="1.83" d="M 529 261 L 529 312.45" /><path fill="#ff0000" pointer-events="all" stroke="#ff0000" stroke-miterlimit="10" stroke-width="1.83" d="M 529 317.95 L 527.17 312.45 L 530.83 312.45 Z" /></g><g style="visibility: visible;" transform="translate(0.5 0.5)"><ellipse opacity="0.25" fill="#000000" stroke="#000000" transform="translate(1.22 1.83)" cx="529" cy="242" rx="18.3453" ry="18.3453" /><ellipse fill="#a20025" pointer-events="all" stroke="#a20025" cx="529" cy="242" rx="18.3453" ry="18.3453" /></g><g style="visibility: visible;"><path visibility="hidden" fill="none" pointer-events="stroke" stroke="white" stroke-miterlimit="10" stroke-width="9.83" d="M 906.18 149 L 901 149 L 901 283 L 769.18 283" /><path fill="none" stroke="#00cc66" stroke-miterlimit="10" stroke-width="1.83" d="M 906.18 149 L 901 149 L 901 283 L 769.18 283" /><path fill="#00cc66" pointer-events="all" stroke="#00cc66" stroke-miterlimit="10" stroke-width="1.83" d="M 902.05 149 L 907.55 146.25 L 906.18 149 L 907.55 151.75 Z" /><path fill="#00cc66" pointer-events="all" stroke="#00cc66" stroke-miterlimit="10" stroke-width="1.83" d="M 765.05 283 L 770.55 280.25 L 769.18 283 L 770.55 285.75 Z" /></g><g style="visibility: visible;" transform="translate(0.5 0.5)"><rect visibility="hidden" fill="none" pointer-events="stroke" stroke="white" stroke-width="9" x="856.73" y="88.06" width="39.14" height="9.17" /><rect fill="none" pointer-events="all" stroke="none" x="856.73" y="88.06" width="39.14" height="9.17" /></g><g style="visibility: visible;"><path visibility="hidden" fill="none" pointer-events="stroke" stroke="white" stroke-miterlimit="10" stroke-width="9.83" d="M 528.96 177.34 L 528.96 217.63" /><path fill="none" stroke="#ff0000" stroke-miterlimit="10" stroke-width="1.83" d="M 528.96 177.34 L 528.96 217.63" /><path fill="#ff0000" pointer-events="all" stroke="#ff0000" stroke-miterlimit="10" stroke-width="1.83" d="M 528.96 221.76 L 526.21 216.26 L 528.96 217.63 L 531.71 216.26 Z" /></g><g style="visibility: visible;" transform="translate(0.5 0.5)"><rect fill="#00cc66" pointer-events="all" stroke="#ff8000" x="714.24" y="258.06" width="48.92" height="48.92" /></g><g style="visibility: visible;" transform="translate(0.5 0.5)"><rect visibility="hidden" fill="none" pointer-events="stroke" stroke="white" stroke-width="9" x="499.6" y="62.37" width="47.09" height="8.56" /><rect fill="none" pointer-events="all" stroke="none" x="499.6" y="62.37" width="47.09" height="8.56" /></g><g style="visibility: visible;" transform="translate(0.5 0.5)"><rect fill="#f5f5f5" pointer-events="all" stroke="#666666" x="761.33" y="232.99" width="109.46" height="12.23" /></g><g style="visibility: visible;" transform="translate(0.5 0.5)"><rect visibility="hidden" fill="none" pointer-events="stroke" stroke="white" stroke-width="9" x="438.45" y="222.59" width="58.71" height="12.23" /><rect fill="none" pointer-events="all" stroke="none" x="438.45" y="222.59" width="58.71" height="12.23" /></g></g><g /><g /></g></svg>